<svg xmlns="http://www.w3.org/2000/svg" viewBox="0 0 64 64">
  <rect width="64" height="64" rx="14" fill="#4361EE"/>
  <path d="M32 6C24.3 6 18 11.6 18 18.5C18 22.2 19.6 25.5 22.3 27.8C20.8 29.7 19.6 32.5 18.8 35.8C17.9 39.4 17.3 43.5 16.9 46.6C16.6 48.8 18.1 50.8 20.3 51.2H20.8C23.1 51.2 25.1 49.5 25.5 47.2C26 44 26.5 40.8 27.4 38.2C28.3 35.5 29.7 34.3 32 34.3C34.3 34.3 35.7 35.5 36.6 38.2C37.5 40.8 38 44 38.5 47.2C38.9 49.5 40.9 51.2 43.2 51.2H43.7C45.9 50.8 47.4 48.8 47.1 46.6C46.7 43.5 46.1 39.4 45.2 35.8C44.4 32.5 43.2 29.7 41.7 27.8C44.4 25.5 46 22.2 46 18.5C46 11.6 39.7 6 32 6Z" fill="white"/>
</svg>
